<svg xmlns="http://www.w3.org/2000/svg" xmlns:xlink="http://www.w3.org/1999/xlink" viewBox="0 0 395.94 176.68">
  <defs>
    <style>
      .cls-1 {
        fill: url(#linear-gradient);
      }

      .cls-2 {
        fill: url(#linear-gradient-2);
      }

      .cls-3 {
        fill: url(#linear-gradient-3);
      }

      .cls-4 {
        fill: url(#linear-gradient-4);
      }

      .cls-5 {
        fill: url(#linear-gradient-5);
      }

      .cls-6 {
        fill: url(#linear-gradient-6);
      }

      .cls-7 {
        fill: url(#linear-gradient-7);
      }

      .cls-8 {
        fill: url(#linear-gradient-8);
      }

      .cls-9 {
        fill: url(#linear-gradient-9);
      }

      .cls-10 {
        fill: #662f8f;
      }

      .cls-11 {
        fill: none;
        stroke: #662f8f;
        stroke-miterlimit: 10;
      }
    </style>
    <linearGradient id="linear-gradient" x1="55.18" y1="258" x2="83.94" y2="258" gradientUnits="userSpaceOnUse">
      <stop offset="0" stop-color="#f7941d"/>
      <stop offset="1" stop-color="#f15a29"/>
    </linearGradient>
    <linearGradient id="linear-gradient-2" x1="89.58" y1="257.61" x2="116.98" y2="257.61" xlink:href="#linear-gradient"/>
    <linearGradient id="linear-gradient-3" x1="120.73" y1="257.84" x2="158.76" y2="257.84" xlink:href="#linear-gradient"/>
    <linearGradient id="linear-gradient-4" x1="162.72" y1="257.81" x2="193.88" y2="257.81" xlink:href="#linear-gradient"/>
    <linearGradient id="linear-gradient-5" x1="200.03" y1="257.71" x2="235.14" y2="257.71" xlink:href="#linear-gradient"/>
    <linearGradient id="linear-gradient-6" x1="243.56" y1="257.81" x2="277.25" y2="257.81" xlink:href="#linear-gradient"/>
    <linearGradient id="linear-gradient-7" x1="280.94" y1="257.84" x2="318.97" y2="257.84" xlink:href="#linear-gradient"/>
    <linearGradient id="linear-gradient-8" x1="321.69" y1="257.81" x2="354.6" y2="257.81" xlink:href="#linear-gradient"/>
    <linearGradient id="linear-gradient-9" x1="360.63" y1="259.81" x2="428.66" y2="259.81" xlink:href="#linear-gradient"/>
  </defs>
  <title>roku_flashback</title>
  <g id="Layer_2" data-name="Layer 2">
    <g>
      <path class="cls-1" d="M82.77,238.21H61.2a5.59,5.59,0,0,0-6,6v28.18a7.86,7.86,0,0,0,.38,2.72,3.49,3.49,0,0,0,1.17,1.63,4.8,4.8,0,0,0,1.91.8,12.87,12.87,0,0,0,2.63.23,23.74,23.74,0,0,0,3-.19,17.81,17.81,0,0,0,2.23-.39V263.54H77.85a3.89,3.89,0,0,0,2.88-1.07,4.83,4.83,0,0,0,1.07-3.53,8.66,8.66,0,0,0-.35-2.46,6.22,6.22,0,0,0-.88-1.88H66.38v-7.32H80a3.89,3.89,0,0,0,2.88-1.07,5,5,0,0,0,1.07-3.6,8.62,8.62,0,0,0-.36-2.49A7.39,7.39,0,0,0,82.77,238.21Z" transform="translate(-52.09 -105.32)"/>
      <path class="cls-2" d="M115.75,268.53H100.91V242.94a7.88,7.88,0,0,0-.39-2.72,3.5,3.5,0,0,0-1.16-1.62,4.67,4.67,0,0,0-1.91-.81,13.62,13.62,0,0,0-2.63-.23,20.89,20.89,0,0,0-3,.23l-2.26.35v33.5a5.58,5.58,0,0,0,6,6H113a4,4,0,0,0,2.92-1.07,5,5,0,0,0,1.1-3.66,8,8,0,0,0-.39-2.49A8.51,8.51,0,0,0,115.75,268.53Z" transform="translate(-52.09 -105.32)"/>
      <path class="cls-3" d="M153.84,258.52c-.91-3.18-1.81-6.25-2.72-9.23s-1.75-5.6-2.53-7.84a5,5,0,0,0-3.2-2.95,16.18,16.18,0,0,0-5.74-.94,17.7,17.7,0,0,0-4.5.58,14,14,0,0,0-3.34,1.23c-.3.78-.72,1.91-1.26,3.37s-1.13,3.15-1.78,5l-2.07,6q-1.11,3.17-2.08,6.18t-1.78,5.61c-.54,1.73-1,3.17-1.26,4.34-.22.82-.41,1.53-.59,2.14a6.6,6.6,0,0,0-.26,1.81,3.63,3.63,0,0,0,1.59,3.14,8.44,8.44,0,0,0,4.89,1.14,11.26,11.26,0,0,0,2.43-.23,17.1,17.1,0,0,0,1.91-.55c.35-1.3.69-2.64,1-4s.69-2.72,1-4h11.72l1.17,4.46a11.21,11.21,0,0,0,.74,2,3.82,3.82,0,0,0,1.11,1.36,4.83,4.83,0,0,0,1.74.78,11.56,11.56,0,0,0,2.63.26,11,11,0,0,0,3.69-.56,5.24,5.24,0,0,0,2.33-1.45c-.64-2.38-1.4-5.11-2.26-8.2S154.75,261.69,153.84,258.52Zm-18.33,2q.9-3.44,2-6.77l2-6.06H140c.51,1.77,1.09,3.77,1.71,6s1.24,4.51,1.85,6.84Z" transform="translate(-52.09 -105.32)"/>
      <path class="cls-4" d="M181.24,253l-3.43-1.1a8.66,8.66,0,0,1-2.53-1.13,1.89,1.89,0,0,1-.84-1.59,2.37,2.37,0,0,1,1.36-2,8.66,8.66,0,0,1,4.28-.81,19.34,19.34,0,0,1,5.25.68,14.44,14.44,0,0,1,3.82,1.59,8.15,8.15,0,0,0,1.88-2,5.25,5.25,0,0,0,.77-2.88,4.67,4.67,0,0,0-1-2.95,7.08,7.08,0,0,0-2.69-2.08A15,15,0,0,0,184,237.5a32.37,32.37,0,0,0-5.18-.39q-7.65,0-11.89,3.3a10.59,10.59,0,0,0-4.24,8.81,11.31,11.31,0,0,0,.93,4.83,10,10,0,0,0,2.63,3.4,15.92,15.92,0,0,0,4,2.43q2.34,1,5.19,2l2.72.91a13.46,13.46,0,0,1,2.91,1.33,2.22,2.22,0,0,1,1,2,2.79,2.79,0,0,1-1.3,2.26c-.86.65-2.35,1-4.47,1a15.49,15.49,0,0,1-5.73-1,17.6,17.6,0,0,1-4.44-2.46,8.21,8.21,0,0,0-2.39,2,4.81,4.81,0,0,0-1.1,3.2,5.14,5.14,0,0,0,1.06,3.21,8.27,8.27,0,0,0,3,2.33,17.78,17.78,0,0,0,4.47,1.43,30.16,30.16,0,0,0,5.54.48q8.43,0,12.77-3.4a10.77,10.77,0,0,0,4.34-8.91A10.57,10.57,0,0,0,190.6,258,24.88,24.88,0,0,0,181.24,253Z" transform="translate(-52.09 -105.32)"/>
      <path class="cls-5" d="M233.59,238.66a4.67,4.67,0,0,0-1.91-.81,13.67,13.67,0,0,0-2.63-.22,20.83,20.83,0,0,0-3,.22c-1,.15-1.79.27-2.26.36v15.16H211.37V243a7.88,7.88,0,0,0-.39-2.72,3.51,3.51,0,0,0-1.17-1.62,4.61,4.61,0,0,0-1.91-.81,13.57,13.57,0,0,0-2.62-.22,20.73,20.73,0,0,0-3,.22c-1,.15-1.79.27-2.27.36v34.2a7.84,7.84,0,0,0,.39,2.72,3.49,3.49,0,0,0,1.17,1.63,4.68,4.68,0,0,0,1.91.8,12.76,12.76,0,0,0,2.62.23,23.62,23.62,0,0,0,3-.19,18.05,18.05,0,0,0,2.24-.39v-14.9h12.44v10.1a8.11,8.11,0,0,0,.38,2.72,3.49,3.49,0,0,0,1.17,1.63,4.8,4.8,0,0,0,1.91.8,12.87,12.87,0,0,0,2.63.23,23.74,23.74,0,0,0,3-.19,17.81,17.81,0,0,0,2.23-.39V243a8.15,8.15,0,0,0-.38-2.72A3.51,3.51,0,0,0,233.59,238.66Z" transform="translate(-52.09 -105.32)"/>
      <path class="cls-6" d="M269.67,256.61a9.72,9.72,0,0,0,4.54-3.08,7.8,7.8,0,0,0,1.68-5q0-5.83-4.47-8.62t-12.76-2.78a65.41,65.41,0,0,0-6.8.35,24.77,24.77,0,0,0-5.51,1.14,5.31,5.31,0,0,0-2,1.2,2.81,2.81,0,0,0-.75,2.1v30.26c0,2.24,1.19,3.82,3.57,4.72a14.43,14.43,0,0,0,2.85.81c1,.2,2.08.36,3.14.49s2.08.22,3.08.26,1.85.06,2.59.06q8.94,0,13.7-3.07t4.76-9.49a8.64,8.64,0,0,0-2.17-6A11.17,11.17,0,0,0,269.67,256.61Zm-15.09-10.69a16.63,16.63,0,0,1,2-.2c.85,0,1.59-.06,2.24-.06a7.56,7.56,0,0,1,4.37,1,3.27,3.27,0,0,1,1.46,2.79,3.72,3.72,0,0,1-1.26,3.05,6.39,6.39,0,0,1-4.05,1h-4.73Zm9.36,22.83a7.94,7.94,0,0,1-4.31,1.07c-.86,0-1.77,0-2.72-.09a12.06,12.06,0,0,1-2.33-.36v-7.9h5.31a8.29,8.29,0,0,1,4.34.9,3.34,3.34,0,0,1,1.43,3.05A3.65,3.65,0,0,1,263.94,268.75Z" transform="translate(-52.09 -105.32)"/>
      <path class="cls-7" d="M314.05,258.52c-.91-3.18-1.82-6.25-2.72-9.23s-1.75-5.6-2.53-7.84a5,5,0,0,0-3.21-2.95,16.09,16.09,0,0,0-5.73-.94,17.7,17.7,0,0,0-4.5.58,14,14,0,0,0-3.34,1.23c-.3.78-.72,1.91-1.26,3.37s-1.13,3.15-1.78,5-1.34,3.88-2.08,6-1.42,4.17-2.07,6.18-1.24,3.88-1.78,5.61-1,3.17-1.26,4.34c-.22.82-.41,1.53-.59,2.14a6.6,6.6,0,0,0-.26,1.81,3.63,3.63,0,0,0,1.59,3.14,8.44,8.44,0,0,0,4.89,1.14,11.26,11.26,0,0,0,2.43-.23,17.1,17.1,0,0,0,1.91-.55c.35-1.3.69-2.64,1-4s.69-2.72,1-4h11.72l1.17,4.46a11.21,11.21,0,0,0,.74,2,3.91,3.91,0,0,0,1.1,1.36,5,5,0,0,0,1.75.78,11.56,11.56,0,0,0,2.63.26,11,11,0,0,0,3.69-.56,5.3,5.3,0,0,0,2.33-1.45q-1-3.57-2.26-8.2T314.05,258.52Zm-18.34,2q.92-3.44,2.05-6.77l2-6.06h.38c.52,1.77,1.1,3.77,1.72,6s1.24,4.51,1.85,6.84Z" transform="translate(-52.09 -105.32)"/>
      <path class="cls-8" d="M352.27,267.17a32.48,32.48,0,0,1-3.53,1.62,12.65,12.65,0,0,1-4.5.71,10.55,10.55,0,0,1-7.94-3.05q-2.94-3-2.94-8.68t2.65-8.61q2.65-3,7.65-3a11.64,11.64,0,0,1,4.43.78,20.48,20.48,0,0,1,3.6,1.88,6.93,6.93,0,0,0,1.94-2,5,5,0,0,0,.84-2.91q0-3-3.27-5T342,237a22.57,22.57,0,0,0-7.9,1.36,18.23,18.23,0,0,0-6.45,4,19.15,19.15,0,0,0-4.34,6.52,23.17,23.17,0,0,0-1.59,8.9,24,24,0,0,0,1.66,9.36,17.76,17.76,0,0,0,4.5,6.48,18.12,18.12,0,0,0,6.67,3.79,26.5,26.5,0,0,0,8.16,1.23q6,0,9-1.84t2.94-4.51a6.63,6.63,0,0,0-.61-2.94A6.25,6.25,0,0,0,352.27,267.17Z" transform="translate(-52.09 -105.32)"/>
      <path class="cls-9" d="M411.62,252.55l-13.91-.11v-4L388.15,258l9.3,9.38v-4.49l14.17.21s7.13-.71,7.13,3.81-7.13,4.07-7.13,4.07H393.93l-1.85-2q-1.59-1.68-3.27-3.53c-1.12-1.23-2.27-2.47-3.43-3.73s-2.29-2.48-3.37-3.69l8.1-8.1a16.58,16.58,0,0,0,2.72-3.36,6.41,6.41,0,0,0,.84-3.18,5,5,0,0,0-1.91-3.92c-1.28-1.1-3.38-1.65-6.32-1.65L372,253.3V243a7.88,7.88,0,0,0-.39-2.72,3.51,3.51,0,0,0-1.17-1.62,4.61,4.61,0,0,0-1.91-.81,13.64,13.64,0,0,0-2.62-.22,20.73,20.73,0,0,0-3,.22c-1,.15-1.8.27-2.27.36v34.2a7.84,7.84,0,0,0,.39,2.72,3.55,3.55,0,0,0,1.16,1.63,4.78,4.78,0,0,0,1.92.8,12.7,12.7,0,0,0,2.62.23,24.32,24.32,0,0,0,3-.19,17.73,17.73,0,0,0,2.27-.39V262.89l6.57,7.64h0s1,1.26,2.53,2.94l0,0a22.71,22.71,0,0,0,3.24,3.14h0a31.5,31.5,0,0,0,3.77,2.84h0a14.18,14.18,0,0,0,6.63,2.41l.05,0h16.73s17,1.67,17-15.08C428.66,251.57,411.62,252.55,411.62,252.55Z" transform="translate(-52.09 -105.32)"/>
    </g>
    <path class="cls-10" d="M122.26,175.68s20.23-10.15,20.23-31.7-22-38.25-45.84-38.25-44.56-.41-44.56-.41V220.41H84.36v-38H92.3l27.79,38h34.37Zm-39.32-13V124.17s28.79-3.48,28.79,19.24C111.73,166.36,82.94,162.64,82.94,162.64Z" transform="translate(-52.09 -105.32)"/>
    <path class="cls-10" d="M189.58,128.67A47.36,47.36,0,1,0,236.94,176,47.36,47.36,0,0,0,189.58,128.67Zm0,72.14c-8.36,0-15.14-11.1-15.14-24.78s6.78-24.78,15.14-24.78,15.14,11.09,15.14,24.78S197.94,200.81,189.58,200.81Z" transform="translate(-52.09 -105.32)"/>
    <path class="cls-10" d="M397.83,130.4v58.71c-5.92,10.72-16.64,11-21.89,8.15S371,181,371,181V130.4h-63l-35,35-.29-34.8H242.2v89.81h30.57V184.23l36.42,36.43h39.1l-46.81-46.81,39.07-39.07v54.44c0,19.32,11.61,31.26,33.38,33.16A40.71,40.71,0,0,0,408,208.65l13.62,11.95h6.81V130.4Z" transform="translate(-52.09 -105.32)"/>
    <path class="cls-10" d="M443.13,135.89a2.13,2.13,0,0,0,1.12-1.76,2.4,2.4,0,0,0-2.54-2.12c-1.32,0-2.47,0-2.47,0v6.37H441v-2.1h.44l1.54,2.1h1.9Zm-2.18-.73V133s1.59-.19,1.59,1.07S441,135.16,441,135.16Z" transform="translate(-52.09 -105.32)"/>
    <circle class="cls-11" cx="389.65" cy="29.86" r="5.79"/>
  </g>
</svg>
